# xmcd
#
# Track frame offsets: 
#        150
#        19030
#        35360
#        63776
#        79962
#        96055
#        117326
#        129030
#        152454
#        179361
#        198055
#        208900
#        224847
#        240601
#
# Disc length: 3385 seconds
#
# Revision: 0
# Processed by: cddbd v1.5.2PL0 Copyright (c) Steve Scherf et al.
# Submitted via: ExactAudioCopy v0.99pb5
#
DISCID=b70d370e
DTITLE=Jason Elmore and Hoodoo Witch - Upside Your Head
DYEAR=2010
DGENRE=Blues
TTITLE0=Dusk Till Dawn
TTITLE1=Big Money Grip
TTITLE2=All It Does Is Rain
TTITLE3=Drag Me Down
TTITLE4=Black Widow
TTITLE5=Road To Ruin
TTITLE6=6 Foot Down
TTITLE7=Dracula Bite
TTITLE8=Evil Woman
TTITLE9=Wash My Hands Of You
TTITLE10=Red River Valley
TTITLE11=World of Trouble
TTITLE12=Nobody Knows
TTITLE13=That's The Way It's Got To Be
EXTD=
EXTT0=
EXTT1=
EXTT2=
EXTT3=
EXTT4=
EXTT5=
EXTT6=
EXTT7=
EXTT8=
EXTT9=
EXTT10=
EXTT11=
EXTT12=
EXTT13=
PLAYORDER=
